<svg width="51" height="51" viewBox="0 0 51 51" fill="none" xmlns="http://www.w3.org/2000/svg">
<path d="M23.375 19.125V12.75H17V8.5H23.375V2.125H27.625V8.5H34V12.75H27.625V19.125H23.375ZM14.875 46.75C13.7063 46.75 12.7054 46.3335 11.8724 45.5005C11.0394 44.6675 10.6236 43.6673 10.625 42.5C10.625 41.3312 11.0415 40.3304 11.8745 39.4974C12.7075 38.6644 13.7077 38.2486 14.875 38.25C16.0437 38.25 17.0446 38.6665 17.8776 39.4995C18.7106 40.3325 19.1264 41.3327 19.125 42.5C19.125 43.6688 18.7085 44.6696 17.8755 45.5026C17.0425 46.3356 16.0423 46.7514 14.875 46.75ZM36.125 46.75C34.9562 46.75 33.9554 46.3335 33.1224 45.5005C32.2894 44.6675 31.8736 43.6673 31.875 42.5C31.875 41.3312 32.2915 40.3304 33.1245 39.4974C33.9575 38.6644 34.9577 38.2486 36.125 38.25C37.2938 38.25 38.2946 38.6665 39.1276 39.4995C39.9606 40.3325 40.3764 41.3327 40.375 42.5C40.375 43.6688 39.9585 44.6696 39.1255 45.5026C38.2925 46.3356 37.2923 46.7514 36.125 46.75ZM14.875 36.125C13.2812 36.125 12.0594 35.4252 11.2094 34.0255C10.3594 32.6258 10.3417 31.2361 11.1562 29.8563L14.025 24.65L6.375 8.5H2.125V4.25H9.08438L18.1156 23.375H33.0438L41.2781 8.5L44.9969 10.5187L36.7625 25.3937C36.3729 26.1021 35.8594 26.651 35.2219 27.0406C34.5844 27.4302 33.8583 27.625 33.0438 27.625H17.2125L14.875 31.875H40.375V36.125H14.875Z" fill="white"/>
</svg>
