<svg width="141" height="60" viewBox="0 0 141 60" fill="none" xmlns="http://www.w3.org/2000/svg">
<path d="M0 0H121C132.046 0 141 8.95431 141 20V60H20C8.95431 60 0 51.0457 0 40V0Z" fill="url(#paint0_linear_55_4)" fill-opacity="0.6"/>
<path d="M67.375 23.125V16.75H61V12.5H67.375V6.125H71.625V12.5H78V16.75H71.625V23.125H67.375ZM58.875 50.75C57.7063 50.75 56.7054 50.3335 55.8724 49.5005C55.0394 48.6675 54.6236 47.6673 54.625 46.5C54.625 45.3312 55.0415 44.3304 55.8745 43.4974C56.7075 42.6644 57.7077 42.2486 58.875 42.25C60.0437 42.25 61.0446 42.6665 61.8776 43.4995C62.7106 44.3325 63.1264 45.3327 63.125 46.5C63.125 47.6688 62.7085 48.6696 61.8755 49.5026C61.0425 50.3356 60.0423 50.7514 58.875 50.75ZM80.125 50.75C78.9562 50.75 77.9554 50.3335 77.1224 49.5005C76.2894 48.6675 75.8736 47.6673 75.875 46.5C75.875 45.3312 76.2915 44.3304 77.1245 43.4974C77.9575 42.6644 78.9577 42.2486 80.125 42.25C81.2938 42.25 82.2946 42.6665 83.1276 43.4995C83.9606 44.3325 84.3764 45.3327 84.375 46.5C84.375 47.6688 83.9585 48.6696 83.1255 49.5026C82.2925 50.3356 81.2923 50.7514 80.125 50.75ZM58.875 40.125C57.2812 40.125 56.0594 39.4252 55.2094 38.0255C54.3594 36.6258 54.3417 35.2361 55.1562 33.8563L58.025 28.65L50.375 12.5H46.125V8.25H53.0844L62.1156 27.375H77.0438L85.2781 12.5L88.9969 14.5187L80.7625 29.3937C80.3729 30.1021 79.8594 30.651 79.2219 31.0406C78.5844 31.4302 77.8583 31.625 77.0438 31.625H61.2125L58.875 35.875H84.375V40.125H58.875Z" fill="white"/>
<defs>
<linearGradient id="paint0_linear_55_4" x1="79" y1="3.33911e-08" x2="80.5" y2="60" gradientUnits="userSpaceOnUse">
<stop stop-color="#EB5757"/>
<stop offset="1"/>
</linearGradient>
</defs>
</svg>
