<svg width="141" height="60" viewBox="0 0 141 60" fill="none" xmlns="http://www.w3.org/2000/svg">
<path d="M0 0H121C132.046 0 141 8.95431 141 20V60H20C8.95431 60 0 51.0457 0 40V0Z" fill="url(#paint0_linear_55_5)" fill-opacity="0.6"/>
<path d="M26.1508 24.1L23.5308 26.74H15.6108V33.26H25.7308L23.0908 35.9H14.7308L12.0508 33.22V26.78L14.7308 24.1H26.1508ZM42.1331 33.2L39.4531 35.88H29.6331L26.9531 33.2V26.78L29.6331 24.1H39.4531L42.1331 26.78V33.2ZM38.5731 33.26V26.72H30.5131V33.26H38.5731ZM62.8494 37.92L59.2894 35.88V28.34L54.8694 34.42H52.5694L48.1694 28.34V35.88H44.6094V24.1H48.6294L53.7294 31.12L58.8094 24.1H62.8494V37.92ZM80.4297 27.72L77.3097 31.94H68.9897V37.92L65.4297 35.88V24.1H77.7497L80.4297 27.72ZM76.7697 27.96L75.8297 26.72H68.9897V29.26H75.8297L76.7697 27.96ZM97.0703 37.92L93.5103 35.88V33L92.4303 31.94H85.6303V35.88H82.0703V24.1H94.3903L97.0703 27.72L95.0303 30.46L97.0703 32.5V37.92ZM93.4103 27.96L92.4703 26.72H85.6303V29.26H92.4703L93.4103 27.96ZM113.382 37.92L109.802 35.9V32.5H102.642V35.9L99.082 35.88V26.78L101.762 24.1H110.702L113.382 26.78V37.92ZM109.802 29.9V26.74H102.642V29.9H109.802ZM130.938 37.92L127.378 35.88V33L126.298 31.94H119.498V35.88H115.938V24.1H128.258L130.938 27.72L128.898 30.46L130.938 32.5V37.92ZM127.278 27.96L126.338 26.72H119.498V29.26H126.338L127.278 27.96Z" fill="white"/>
<defs>
<linearGradient id="paint0_linear_55_5" x1="80" y1="0" x2="80" y2="60" gradientUnits="userSpaceOnUse">
<stop stop-color="#EB5757"/>
<stop offset="1"/>
</linearGradient>
</defs>
</svg>
