<svg width="694" height="116" viewBox="0 0 694 116" fill="none" xmlns="http://www.w3.org/2000/svg">
<rect width="174.126" height="21.6724" transform="matrix(-1.60998e-07 1 1 1.13392e-07 672.328 0.0385742)" fill="#C51616"/>
<rect width="174.126" height="21.6724" transform="matrix(-1.60998e-07 1 1 1.13392e-07 637.328 0.0385742)" fill="#C51616" fill-opacity="0.95"/>
<rect width="174.126" height="21.6724" transform="matrix(-1.60998e-07 1 1 1.13392e-07 602.328 0.0385742)" fill="#C51616" fill-opacity="0.9"/>
<rect width="174.126" height="21.6724" transform="matrix(-1.60998e-07 1 1 1.13392e-07 567.328 0.0385742)" fill="#C51616" fill-opacity="0.85"/>
<rect width="174.126" height="21.6724" transform="matrix(-1.60998e-07 1 1 1.13392e-07 532.328 0.0385742)" fill="#C51616" fill-opacity="0.8"/>
<rect width="174.126" height="21.6724" transform="matrix(-1.60998e-07 1 1 1.13392e-07 497.328 0.0385742)" fill="#C51616" fill-opacity="0.75"/>
<rect width="174.126" height="21.6724" transform="matrix(-1.60998e-07 1 1 1.13392e-07 462.328 0.0385742)" fill="#C51616" fill-opacity="0.7"/>
<rect width="174.126" height="21.6724" transform="matrix(-1.60998e-07 1 1 1.13392e-07 427.328 0.0385742)" fill="#C51616" fill-opacity="0.65"/>
<rect width="174.126" height="21.6724" transform="matrix(-1.60998e-07 1 1 1.13392e-07 392.328 0.0385742)" fill="#C51616" fill-opacity="0.6"/>
<rect width="174.126" height="21.6724" transform="matrix(-1.60998e-07 1 1 1.13392e-07 357.328 0.0385742)" fill="#C51616" fill-opacity="0.55"/>
<rect width="174.126" height="21.6724" transform="matrix(-1.60998e-07 1 1 1.13392e-07 322.328 0.0385742)" fill="#C51616" fill-opacity="0.5"/>
<rect width="174.126" height="21.6724" transform="matrix(-1.60998e-07 1 1 1.13392e-07 287.328 0.0385742)" fill="#C51616" fill-opacity="0.45"/>
<rect width="174.126" height="21.6724" transform="matrix(-1.60998e-07 1 1 1.13392e-07 252.328 0.0385742)" fill="#C51616" fill-opacity="0.4"/>
<rect width="174.126" height="21.6724" transform="matrix(-1.60998e-07 1 1 1.13392e-07 217.328 0.0385742)" fill="#C51616" fill-opacity="0.35"/>
<rect width="174.126" height="21.6724" transform="matrix(-1.60998e-07 1 1 1.13392e-07 182.328 0.0385742)" fill="#C51616" fill-opacity="0.3"/>
<rect width="174.126" height="21.6724" transform="matrix(-1.60998e-07 1 1 1.13392e-07 147.328 0.0385742)" fill="#C51616" fill-opacity="0.25"/>
<rect width="174.126" height="21.6724" transform="matrix(-1.60998e-07 1 1 1.13392e-07 112.328 0.0385742)" fill="#C51616" fill-opacity="0.2"/>
<rect width="174.126" height="21.6724" transform="matrix(-1.60998e-07 1 1 1.13392e-07 77.3276 0.0385742)" fill="#C51616" fill-opacity="0.15"/>
<rect width="174.126" height="21.6724" transform="matrix(-1.60998e-07 1 1 1.13392e-07 42.3276 0.0385742)" fill="#C51616" fill-opacity="0.1"/>
<rect width="174.126" height="21.6724" transform="matrix(-1.60998e-07 1 1 1.13392e-07 7.32761 0.0385742)" fill="#C51616" fill-opacity="0.05"/>
</svg>
