<svg width="917" height="1080" viewBox="0 0 917 1080" fill="none" xmlns="http://www.w3.org/2000/svg">
<path d="M0.876873 1101.16L65.3769 1180.4L65.3769 1021.92L0.876873 1101.16Z" fill="url(#paint0_linear_9_793)"/>
<rect width="869.156" height="64.2699" transform="matrix(4.37114e-08 -1 -1 -4.37114e-08 150.426 1865.81)" fill="url(#paint1_linear_9_793)"/>
<path d="M86.1559 996.308L150.656 1075.55L150.656 917.066L86.1559 996.308Z" fill="url(#paint2_linear_9_793)"/>
<rect width="869.156" height="64.2699" transform="matrix(4.37114e-08 -1 -1 -4.37114e-08 235.705 1760.96)" fill="url(#paint3_linear_9_793)"/>
<path d="M171.435 891.455L235.935 970.696L235.935 812.214L171.435 891.455Z" fill="url(#paint4_linear_9_793)"/>
<rect width="869.156" height="64.2699" transform="matrix(4.37114e-08 -1 -1 -4.37114e-08 320.984 1656.1)" fill="url(#paint5_linear_9_793)"/>
<path d="M256.714 786.603L321.214 865.844L321.214 707.361L256.714 786.603Z" fill="url(#paint6_linear_9_793)"/>
<rect width="869.156" height="64.2699" transform="matrix(4.37114e-08 -1 -1 -4.37114e-08 406.263 1551.25)" fill="url(#paint7_linear_9_793)"/>
<path d="M341.993 681.75L406.493 760.991L406.493 602.509L341.993 681.75Z" fill="url(#paint8_linear_9_793)"/>
<rect width="869.156" height="64.2699" transform="matrix(4.37114e-08 -1 -1 -4.37114e-08 491.542 1446.4)" fill="url(#paint9_linear_9_793)"/>
<path d="M427.272 576.897L491.772 656.139L491.772 497.656L427.272 576.897Z" fill="url(#paint10_linear_9_793)"/>
<rect width="869.156" height="64.2699" transform="matrix(4.37114e-08 -1 -1 -4.37114e-08 576.821 1341.54)" fill="url(#paint11_linear_9_793)"/>
<path d="M512.551 472.045L577.051 551.286L577.051 392.804L512.551 472.045Z" fill="url(#paint12_linear_9_793)"/>
<rect width="869.156" height="64.2699" transform="matrix(4.37114e-08 -1 -1 -4.37114e-08 662.1 1236.69)" fill="url(#paint13_linear_9_793)"/>
<path d="M597.83 367.192L662.33 446.434L662.33 287.951L597.83 367.192Z" fill="url(#paint14_linear_9_793)"/>
<rect width="869.156" height="64.2699" transform="matrix(4.37114e-08 -1 -1 -4.37114e-08 747.379 1131.84)" fill="url(#paint15_linear_9_793)"/>
<path d="M683.109 262.34L747.609 341.581L747.609 183.098L683.109 262.34Z" fill="url(#paint16_linear_9_793)"/>
<rect width="930.311" height="63.7312" transform="matrix(4.37114e-08 -1 -1 -4.37114e-08 832.12 1094.6)" fill="url(#paint17_linear_9_793)"/>
<path d="M768.388 163.925L832.348 248.742L832.348 79.1084L768.388 163.925Z" fill="url(#paint18_linear_9_793)"/>
<rect width="1025.14" height="64.2699" transform="matrix(4.37114e-08 -1 -1 -4.37114e-08 917.937 1094.6)" fill="url(#paint19_linear_9_793)"/>
<path d="M853.667 69.0561L918.167 162.519L918.167 -24.4066L853.667 69.0561Z" fill="url(#paint20_linear_9_793)"/>
<defs>
<linearGradient id="paint0_linear_9_793" x1="43.8769" y1="1009.66" x2="43.8769" y2="1192.66" gradientUnits="userSpaceOnUse">
<stop stop-color="#333333"/>
<stop offset="1" stop-color="#DD1818"/>
</linearGradient>
<linearGradient id="paint1_linear_9_793" x1="0" y1="32.135" x2="869.156" y2="32.135" gradientUnits="userSpaceOnUse">
<stop stop-color="#333333"/>
<stop offset="1" stop-color="#DD1818"/>
</linearGradient>
<linearGradient id="paint2_linear_9_793" x1="129.156" y1="904.808" x2="129.156" y2="1087.81" gradientUnits="userSpaceOnUse">
<stop stop-color="#333333"/>
<stop offset="1" stop-color="#DD1818"/>
</linearGradient>
<linearGradient id="paint3_linear_9_793" x1="0" y1="32.135" x2="869.156" y2="32.135" gradientUnits="userSpaceOnUse">
<stop stop-color="#333333"/>
<stop offset="1" stop-color="#DD1818"/>
</linearGradient>
<linearGradient id="paint4_linear_9_793" x1="214.435" y1="799.955" x2="214.435" y2="982.955" gradientUnits="userSpaceOnUse">
<stop stop-color="#333333"/>
<stop offset="1" stop-color="#DD1818"/>
</linearGradient>
<linearGradient id="paint5_linear_9_793" x1="0" y1="32.135" x2="869.156" y2="32.135" gradientUnits="userSpaceOnUse">
<stop stop-color="#333333"/>
<stop offset="1" stop-color="#DD1818"/>
</linearGradient>
<linearGradient id="paint6_linear_9_793" x1="299.714" y1="695.103" x2="299.714" y2="878.103" gradientUnits="userSpaceOnUse">
<stop stop-color="#333333"/>
<stop offset="1" stop-color="#DD1818"/>
</linearGradient>
<linearGradient id="paint7_linear_9_793" x1="0" y1="32.135" x2="869.156" y2="32.135" gradientUnits="userSpaceOnUse">
<stop stop-color="#333333"/>
<stop offset="1" stop-color="#DD1818"/>
</linearGradient>
<linearGradient id="paint8_linear_9_793" x1="384.993" y1="590.25" x2="384.993" y2="773.25" gradientUnits="userSpaceOnUse">
<stop stop-color="#333333"/>
<stop offset="1" stop-color="#DD1818"/>
</linearGradient>
<linearGradient id="paint9_linear_9_793" x1="0" y1="32.135" x2="869.156" y2="32.135" gradientUnits="userSpaceOnUse">
<stop stop-color="#333333"/>
<stop offset="1" stop-color="#DD1818"/>
</linearGradient>
<linearGradient id="paint10_linear_9_793" x1="470.272" y1="485.397" x2="470.272" y2="668.397" gradientUnits="userSpaceOnUse">
<stop stop-color="#333333"/>
<stop offset="1" stop-color="#DD1818"/>
</linearGradient>
<linearGradient id="paint11_linear_9_793" x1="0" y1="32.135" x2="869.156" y2="32.135" gradientUnits="userSpaceOnUse">
<stop stop-color="#333333"/>
<stop offset="1" stop-color="#DD1818"/>
</linearGradient>
<linearGradient id="paint12_linear_9_793" x1="555.551" y1="380.545" x2="555.551" y2="563.545" gradientUnits="userSpaceOnUse">
<stop stop-color="#333333"/>
<stop offset="1" stop-color="#DD1818"/>
</linearGradient>
<linearGradient id="paint13_linear_9_793" x1="0" y1="32.135" x2="869.156" y2="32.135" gradientUnits="userSpaceOnUse">
<stop stop-color="#333333"/>
<stop offset="1" stop-color="#DD1818"/>
</linearGradient>
<linearGradient id="paint14_linear_9_793" x1="640.83" y1="275.692" x2="640.83" y2="458.692" gradientUnits="userSpaceOnUse">
<stop stop-color="#333333"/>
<stop offset="1" stop-color="#DD1818"/>
</linearGradient>
<linearGradient id="paint15_linear_9_793" x1="0" y1="32.135" x2="869.156" y2="32.135" gradientUnits="userSpaceOnUse">
<stop stop-color="#333333"/>
<stop offset="1" stop-color="#DD1818"/>
</linearGradient>
<linearGradient id="paint16_linear_9_793" x1="726.109" y1="170.84" x2="726.109" y2="353.84" gradientUnits="userSpaceOnUse">
<stop stop-color="#333333"/>
<stop offset="1" stop-color="#DD1818"/>
</linearGradient>
<linearGradient id="paint17_linear_9_793" x1="0" y1="31.8656" x2="930.311" y2="31.8656" gradientUnits="userSpaceOnUse">
<stop stop-color="#333333"/>
<stop offset="1" stop-color="#DD1818"/>
</linearGradient>
<linearGradient id="paint18_linear_9_793" x1="811.028" y1="65.9872" x2="811.028" y2="261.863" gradientUnits="userSpaceOnUse">
<stop stop-color="#333333"/>
<stop offset="1" stop-color="#DD1818"/>
</linearGradient>
<linearGradient id="paint19_linear_9_793" x1="0" y1="32.135" x2="1025.14" y2="32.135" gradientUnits="userSpaceOnUse">
<stop stop-color="#333333"/>
<stop offset="1" stop-color="#DD1818"/>
</linearGradient>
<linearGradient id="paint20_linear_9_793" x1="896.667" y1="-38.8654" x2="896.667" y2="176.978" gradientUnits="userSpaceOnUse">
<stop stop-color="#333333"/>
<stop offset="1" stop-color="#DD1818"/>
</linearGradient>
</defs>
</svg>
