<svg width="45" height="45" viewBox="0 0 45 45" fill="none" xmlns="http://www.w3.org/2000/svg">
<g clip-path="url(#clip0_4_61)">
<path d="M38.1673 8.33355C35.3289 7.05347 32.2863 6.10732 29.1047 5.56932C29.0763 5.56388 29.047 5.56738 29.0208 5.57935C28.9945 5.59131 28.9726 5.61115 28.9581 5.6361C28.5685 6.32067 28.1344 7.21302 27.8302 7.91799C24.4558 7.41382 21.0252 7.41382 17.6507 7.91799C17.3119 7.13669 16.9297 6.37488 16.5061 5.6361C16.4917 5.61084 16.47 5.59056 16.4438 5.57796C16.4176 5.56537 16.3882 5.56105 16.3595 5.56561C13.1797 6.10361 10.1372 7.04976 7.29692 8.3317C7.27248 8.34194 7.25177 8.35942 7.23755 8.38179C1.4642 16.8693 -0.118282 25.1472 0.659043 33.3211C0.661206 33.3411 0.66742 33.3605 0.677307 33.3781C0.687194 33.3956 0.700547 33.4109 0.716554 33.4232C4.08631 35.8765 7.84482 37.7454 11.8347 38.9516C11.8625 38.9602 11.8923 38.9602 11.9201 38.9516C11.9479 38.943 11.9724 38.9262 11.9906 38.9034C12.8491 37.7552 13.6099 36.537 14.265 35.2617C14.2741 35.2442 14.2793 35.225 14.2804 35.2054C14.2814 35.1858 14.2782 35.1661 14.271 35.1478C14.2638 35.1295 14.2527 35.113 14.2386 35.0994C14.2244 35.0857 14.2075 35.0753 14.189 35.0687C12.9905 34.6174 11.8293 34.0728 10.716 33.4399C10.696 33.4284 10.6792 33.4122 10.667 33.3927C10.6548 33.3731 10.6476 33.3509 10.6462 33.3279C10.6447 33.3049 10.6489 33.2819 10.6585 33.261C10.6682 33.2401 10.6828 33.2218 10.7012 33.208C10.9349 33.0354 11.1687 32.8555 11.3913 32.6755C11.4114 32.6593 11.4355 32.649 11.461 32.6458C11.4866 32.6425 11.5126 32.6464 11.536 32.657C18.8214 35.9295 26.7115 35.9295 33.9115 32.657C33.935 32.6457 33.9613 32.6413 33.9872 32.6443C34.0131 32.6472 34.0376 32.6574 34.058 32.6737C34.2807 32.8555 34.5126 33.0354 34.7482 33.208C34.7667 33.2215 34.7816 33.2395 34.7916 33.2603C34.8015 33.281 34.8061 33.3039 34.805 33.3269C34.8039 33.3499 34.7971 33.3722 34.7852 33.3919C34.7734 33.4116 34.7568 33.4281 34.737 33.4399C33.6276 34.078 32.4737 34.6179 31.2623 35.0669C31.2437 35.0736 31.2267 35.0843 31.2126 35.0981C31.1984 35.1119 31.1873 35.1286 31.1801 35.147C31.1729 35.1655 31.1698 35.1852 31.1708 35.205C31.1719 35.2248 31.1771 35.2441 31.1862 35.2617C31.8541 36.5362 32.6184 37.7495 33.4588 38.9015C33.4763 38.9252 33.5006 38.9429 33.5285 38.9521C33.5564 38.9614 33.5865 38.9619 33.6147 38.9535C37.6114 37.7507 41.376 35.8809 44.7495 33.4232C44.766 33.4117 44.7798 33.3968 44.79 33.3795C44.8003 33.3622 44.8067 33.3429 44.8089 33.323C45.7365 23.8726 43.2542 15.6616 38.2248 8.3855C38.2125 8.36185 38.1921 8.34342 38.1673 8.33355ZM15.354 28.3436C13.1612 28.3436 11.3524 26.3604 11.3524 23.9283C11.3524 21.4943 13.1259 19.5129 15.354 19.5129C17.5988 19.5129 19.3909 21.511 19.3557 23.9283C19.3557 26.3623 17.5821 28.3436 15.354 28.3436ZM30.1492 28.3436C27.9545 28.3436 26.1475 26.3604 26.1475 23.9283C26.1475 21.4943 27.9192 19.5129 30.1492 19.5129C32.3939 19.5129 34.1861 21.511 34.1508 23.9283C34.1508 26.3623 32.3958 28.3436 30.1492 28.3436Z" fill="white"/>
</g>
<defs>
<clipPath id="clip0_4_61">
<rect width="44.5246" height="44.5246" fill="white" transform="translate(0.475403)"/>
</clipPath>
</defs>
</svg>
