<svg width="159" height="159" viewBox="0 0 159 159" fill="none" xmlns="http://www.w3.org/2000/svg">
<path d="M63.5187 109.607L109.598 79.9841L63.5187 50.3614V109.607ZM79.9758 145.812C70.8695 145.812 62.3119 144.083 54.3028 140.625C46.2937 137.167 39.3268 132.478 33.4023 126.558C27.4778 120.633 22.7886 113.666 19.3348 105.657C15.881 97.648 14.1519 89.0904 14.1475 79.9841C14.1475 70.8779 15.8766 62.3202 19.3348 54.3111C22.793 46.302 27.4821 39.3352 33.4023 33.4106C39.3268 27.4861 46.2937 22.7969 54.3028 19.3432C62.3119 15.8894 70.8695 14.1603 79.9758 14.1559C89.082 14.1559 97.6397 15.885 105.649 19.3432C113.658 22.8013 120.625 27.4905 126.549 33.4106C132.474 39.3352 137.165 46.302 140.623 54.3111C144.082 62.3202 145.808 70.8779 145.804 79.9841C145.804 89.0904 144.075 97.648 140.617 105.657C137.159 113.666 132.469 120.633 126.549 126.558C120.625 132.482 113.658 137.174 105.649 140.632C97.6397 144.09 89.082 145.817 79.9758 145.812Z" fill="black" fill-opacity="0.5"/>
</svg>
