<svg width="1920" height="66" viewBox="0 0 1920 66" fill="none" xmlns="http://www.w3.org/2000/svg">
<rect x="1883.11" y="134.758" width="1845.91" height="133.221" transform="rotate(-180 1883.11 134.758)" fill="url(#paint0_linear_33_26)" stroke="black" stroke-width="2"/>
<path d="M36.0876 0.537371L120.432 153.6L-48.2569 153.6L36.0876 0.537371Z" fill="url(#paint1_linear_33_26)"/>
<path d="M1884.11 0.537493L1968.45 153.6L1799.77 153.6L1884.11 0.537493Z" fill="url(#paint2_linear_33_26)"/>
<path d="M818.247 36.6666H820.747C820.924 36.6666 821.072 36.6026 821.192 36.4746C821.312 36.3466 821.372 36.1884 821.372 36V34.6666H820.122V35.3333H818.872V32.6666H820.122V33.3333H821.372V32C821.372 31.8111 821.312 31.6526 821.192 31.5246C821.072 31.3966 820.923 31.3329 820.747 31.3333H818.247C818.07 31.3333 817.921 31.3973 817.801 31.5253C817.681 31.6533 817.621 31.8115 817.622 32V36C817.622 36.1889 817.682 36.3473 817.802 36.4753C817.922 36.6033 818.07 36.6671 818.247 36.6666ZM819.497 40.6666C818.632 40.6666 817.82 40.4915 817.059 40.1413C816.299 39.7911 815.637 39.3162 815.075 38.7166C814.512 38.1166 814.067 37.4111 813.739 36.6C813.411 35.7889 813.247 34.9222 813.247 34C813.247 33.0778 813.411 32.2111 813.739 31.4C814.067 30.5889 814.513 29.8833 815.075 29.2833C815.637 28.6833 816.299 28.2084 817.059 27.8586C817.82 27.5089 818.632 27.3338 819.497 27.3333C820.361 27.3333 821.174 27.5084 821.934 27.8586C822.695 28.2089 823.356 28.6838 823.919 29.2833C824.481 29.8833 824.926 30.5889 825.255 31.4C825.583 32.2111 825.747 33.0778 825.747 34C825.747 34.9222 825.582 35.7889 825.254 36.6C824.926 37.4111 824.481 38.1166 823.919 38.7166C823.356 39.3166 822.695 39.7918 821.934 40.142C821.174 40.4922 820.361 40.6671 819.497 40.6666ZM819.497 39.3333C820.892 39.3333 822.075 38.8166 823.044 37.7833C824.012 36.75 824.497 35.4889 824.497 34C824.497 32.5111 824.012 31.25 823.044 30.2166C822.075 29.1833 820.892 28.6666 819.497 28.6666C818.101 28.6666 816.919 29.1833 815.95 30.2166C814.981 31.25 814.497 32.5111 814.497 34C814.497 35.4889 814.981 36.75 815.95 37.7833C816.919 38.8166 818.101 39.3333 819.497 39.3333Z" fill="white"/>
<path d="M844.647 38.874H831.039L831.003 35.616L833.343 32.484H840.363L841.119 31.512L840.363 30.63H833.361L831.003 28.254H842.235L844.647 31.512L842.307 34.644H834.981L834.243 35.58V36.516H842.271L844.647 38.874ZM859.695 36.48L857.283 38.892H848.445L846.033 36.48V30.702L848.445 28.29H857.283L859.695 30.702V36.48ZM856.491 36.534V30.648H849.237V36.534H856.491ZM875.04 38.874H861.432L861.396 35.616L863.736 32.484H870.756L871.512 31.512L870.756 30.63H863.754L861.396 28.254H872.628L875.04 31.512L872.7 34.644H865.374L864.636 35.58V36.516H872.664L875.04 38.874ZM890.069 35.616L887.657 38.874H878.801C878.561 38.646 877.769 37.86 876.425 36.516H885.785L886.541 35.616L885.785 34.644H878.603L876.425 32.484H885.785L886.541 31.512L885.785 30.63H878.801C878.561 30.402 877.769 29.61 876.425 28.254H887.657L890.069 31.512L888.557 33.564L890.069 35.616ZM913.795 28.29L911.437 30.666H904.309V36.534H913.417L911.041 38.91H903.517L901.105 36.498V30.702L903.517 28.29H913.795ZM928.179 36.48L925.767 38.892H916.929L914.517 36.48V30.702L916.929 28.29H925.767L928.179 30.702V36.48ZM924.975 36.534V30.648H917.721V36.534H924.975ZM943.908 31.548L941.1 35.346H933.612V40.728L930.408 38.892V28.29H941.496L943.908 31.548ZM940.614 31.764L939.768 30.648H933.612V32.934H939.768L940.614 31.764ZM957.236 28.29L951.638 33.888V40.728L948.434 38.892V33.888L942.818 28.29H946.634L950.036 31.692L953.438 28.29H957.236ZM972.296 40.728L969.092 38.892V36.3L968.12 35.346H962V38.892H958.796V28.29H969.884L972.296 31.548L970.46 34.014L972.296 35.85V40.728ZM969.002 31.764L968.156 30.648H962V32.934H968.156L969.002 31.764ZM977.698 38.91L974.494 38.892V28.29L977.698 26.436V38.91ZM992.633 28.29L990.275 30.666H983.147V36.534H989.051V34.68H986.855L984.695 32.52H992.255V36.534L989.879 38.91H982.355L979.943 36.498V30.702L982.355 28.29H992.633ZM1007.33 38.91H1004.13V34.68H997.789V38.91L994.585 38.892V28.29H997.789V32.52H1004.13V28.29L1007.33 26.436V38.91ZM1023.36 28.29L1021 30.648H1017.85V40.728L1014.65 38.892V30.648H1011.5L1009.14 28.29H1023.36ZM1022.4 33.888H1020.04V31.512H1022.4V33.888ZM1022.4 38.856H1020.04V36.498H1022.4V38.856ZM1046.3 40.728L1043.08 38.91V35.85H1036.64V38.91L1033.43 38.892V30.702L1035.85 28.29H1043.89L1046.3 30.702V40.728ZM1043.08 33.51V30.666H1036.64V33.51H1043.08ZM1057.88 36.498L1055.47 38.91H1049.78L1047.43 36.534H1054.68V28.29L1057.88 26.436V36.498ZM1072.86 28.29L1070.5 30.666H1063.37V32.52H1071.31L1069.15 34.68H1063.37V36.534H1072.48L1070.11 38.91H1060.17V28.29H1072.86ZM1076.96 38.856H1074.6V36.498H1076.96V38.856ZM1091.51 28.29L1089.15 30.666H1082.02V36.534H1087.93V34.68H1085.73L1083.57 32.52H1091.13V36.534L1088.76 38.91H1081.23L1078.82 36.498V30.702L1081.23 28.29H1091.51ZM1105.62 28.29L1103.27 30.666H1096.14V36.534H1102.04V34.68H1099.85L1097.69 32.52H1105.25V36.534L1102.87 38.91H1095.35L1092.93 36.498V30.702L1095.35 28.29H1105.62Z" fill="white"/>
<defs>
<linearGradient id="paint0_linear_33_26" x1="2808.07" y1="203.369" x2="2808.07" y2="270.979" gradientUnits="userSpaceOnUse">
<stop stop-color="#333333"/>
<stop offset="1" stop-color="#DD1818"/>
</linearGradient>
<linearGradient id="paint1_linear_33_26" x1="36.0876" y1="0.537362" x2="36.0876" y2="204.621" gradientUnits="userSpaceOnUse">
<stop stop-color="#333333"/>
<stop offset="1" stop-color="#DD1818"/>
</linearGradient>
<linearGradient id="paint2_linear_33_26" x1="1884.11" y1="0.537484" x2="1884.11" y2="204.621" gradientUnits="userSpaceOnUse">
<stop stop-color="#333333"/>
<stop offset="1" stop-color="#DD1818"/>
</linearGradient>
</defs>
</svg>
