<svg width="369" height="80" viewBox="0 0 369 80" fill="none" xmlns="http://www.w3.org/2000/svg">
<path d="M160.43 26.63L154.404 32.702H136.188V47.698H159.464L153.392 53.77H134.164L128 47.606V32.794L134.164 26.63H160.43ZM195.165 58.416L186.931 53.77V45.95H170.463V53.77L162.275 53.724V32.794L168.439 26.63H189.001L195.165 32.794V58.416ZM186.931 39.97V32.702H170.463V39.97H186.931ZM235.543 58.416L227.355 53.724V47.1L224.871 44.662H209.231V53.724H201.043V26.63H229.379L235.543 34.956L230.851 41.258L235.543 45.95V58.416ZM227.125 35.508L224.963 32.656H209.231V38.498H224.963L227.125 35.508ZM275.658 58.416L267.47 53.724V47.1L264.986 44.662H249.346V53.724H241.158V26.63H269.494L275.658 34.956L270.966 41.258L275.658 45.95V58.416ZM267.24 35.508L265.078 32.656H249.346V38.498H265.078L267.24 35.508ZM289.461 53.77L281.273 53.724V26.63L289.461 21.892V53.77ZM330.461 26.63L324.435 32.656H316.385V58.416L308.197 53.724V32.656H300.147L294.121 26.63H330.461ZM364.523 47.56L358.359 53.724H335.773L329.609 47.56V32.794L335.773 26.63H358.359L364.523 32.794V47.56ZM356.335 47.698V32.656H337.797V47.698H356.335Z" fill="white"/>
<path d="M36.6666 30.0002V20.0002H26.6666V13.3335H36.6666V3.3335H43.3333V13.3335H53.3333V20.0002H43.3333V30.0002H36.6666ZM23.3333 73.3335C21.5 73.3335 19.93 72.6802 18.6233 71.3735C17.3166 70.0668 16.6644 68.4979 16.6666 66.6668C16.6666 64.8335 17.32 63.2635 18.6266 61.9568C19.9333 60.6502 21.5022 59.9979 23.3333 60.0002C25.1666 60.0002 26.7366 60.6535 28.0433 61.9602C29.35 63.2668 30.0022 64.8357 30 66.6668C30 68.5002 29.3466 70.0702 28.04 71.3768C26.7333 72.6835 25.1644 73.3357 23.3333 73.3335ZM56.6666 73.3335C54.8333 73.3335 53.2633 72.6802 51.9566 71.3735C50.65 70.0668 49.9978 68.4979 50 66.6668C50 64.8335 50.6533 63.2635 51.96 61.9568C53.2666 60.6502 54.8355 59.9979 56.6666 60.0002C58.5 60.0002 60.07 60.6535 61.3766 61.9602C62.6833 63.2668 63.3355 64.8357 63.3333 66.6668C63.3333 68.5002 62.68 70.0702 61.3733 71.3768C60.0666 72.6835 58.4978 73.3357 56.6666 73.3335ZM23.3333 56.6668C20.8333 56.6668 18.9166 55.5691 17.5833 53.3735C16.25 51.1779 16.2222 48.9979 17.5 46.8335L22 38.6668L9.99998 13.3335H3.33331V6.66683H14.25L28.4166 36.6668H51.8333L64.75 13.3335L70.5833 16.5002L57.6666 39.8335C57.0555 40.9446 56.25 41.8057 55.25 42.4168C54.25 43.0279 53.1111 43.3335 51.8333 43.3335H27L23.3333 50.0002H63.3333V56.6668H23.3333Z" fill="white"/>
</svg>
