<svg width="41" height="41" viewBox="0 0 41 41" fill="none" xmlns="http://www.w3.org/2000/svg">
<path d="M38.4918 0.385254H1.91804C1.03849 0.385254 0.327881 1.09586 0.327881 1.97542V38.5492C0.327881 39.4288 1.03849 40.1394 1.91804 40.1394H38.4918C39.3714 40.1394 40.082 39.4288 40.082 38.5492V1.97542C40.082 1.09586 39.3714 0.385254 38.4918 0.385254ZM30.9038 14.7812C30.9187 15.0148 30.9187 15.2583 30.9187 15.4968C30.9187 22.7917 25.363 31.1947 15.2108 31.1947C12.0802 31.1947 9.17814 30.2853 6.73326 28.72C7.18049 28.7697 7.60785 28.7896 8.06502 28.7896C10.649 28.7896 13.0243 27.915 14.9176 26.4341C12.4926 26.3844 10.4552 24.7943 9.75954 22.6078C10.6093 22.732 11.3746 22.732 12.2491 22.5084C11.0005 22.2547 9.87818 21.5766 9.07287 20.5892C8.26756 19.6018 7.82892 18.3661 7.83147 17.0919V17.0223C8.56195 17.4348 9.42163 17.6882 10.3211 17.723C9.56496 17.2191 8.94487 16.5364 8.51579 15.7355C8.08671 14.9345 7.8619 14.0401 7.86128 13.1314C7.86128 12.1028 8.12962 11.1636 8.61164 10.3486C9.99758 12.0548 11.727 13.4502 13.6876 14.4441C15.6481 15.4381 17.7959 16.0084 19.9913 16.1179C19.2111 12.3661 22.0137 9.32993 25.3829 9.32993C26.9731 9.32993 28.4042 9.99581 29.413 11.0692C30.6603 10.8356 31.8529 10.3685 32.9163 9.74238C32.5039 11.0195 31.6392 12.0978 30.4913 12.7786C31.6044 12.6593 32.6778 12.3512 33.6716 11.9189C32.9213 13.0221 31.9821 14.001 30.9038 14.7812Z" fill="white"/>
</svg>
