<svg width="141" height="60" viewBox="0 0 141 60" fill="none" xmlns="http://www.w3.org/2000/svg">
<path d="M0 0H121C132.046 0 141 8.95431 141 20V60H20C8.95431 60 0 51.0457 0 40V0Z" fill="url(#paint0_linear_55_3)" fill-opacity="0.6"/>
<path d="M29.2098 24.1L22.8098 35.88H19.4898L13.0898 24.1H16.7298L21.1498 32.16L25.5698 24.1H29.2098ZM45.2953 24.1L42.6753 26.74H34.7553V28.8H43.5753L41.1753 31.2H34.7553V33.26H44.8753L42.2353 35.9H31.1953V24.1H45.2953ZM62.0352 37.92L58.4752 35.88V33L57.3952 31.94H50.5952V35.88H47.0352V24.1H59.3552L62.0352 27.72L59.9952 30.46L62.0352 32.5V37.92ZM58.3752 27.96L57.4352 26.72H50.5952V29.26H57.4352L58.3752 27.96ZM92.7166 37.92L89.1566 35.88V28.34L84.7366 34.42H82.4366L78.0366 28.34V35.88H74.4766V24.1H78.4966L83.5966 31.12L88.6766 24.1H92.7166V37.92ZM109.011 37.92L105.431 35.9V32.5H98.2709V35.9L94.7109 35.88V26.78L97.3909 24.1H106.331L109.011 26.78V37.92ZM105.431 29.9V26.74H98.2709V29.9H105.431ZM105.831 20.52L102.951 23.12H99.9109L102.791 20.52H105.831ZM127.438 32.26L124.758 35.88H111.078L113.698 33.26H122.678L123.518 32.26L122.678 31.2H113.678L111.078 27.72L113.758 24.1H127.438L124.798 26.72H115.838L114.978 27.72L115.838 28.78H124.838L127.438 32.26Z" fill="white"/>
<defs>
<linearGradient id="paint0_linear_55_3" x1="79" y1="3.33911e-08" x2="80.5" y2="60" gradientUnits="userSpaceOnUse">
<stop stop-color="#EB5757"/>
<stop offset="1"/>
</linearGradient>
</defs>
</svg>
