<svg width="40" height="41" viewBox="0 0 40 41" fill="none" xmlns="http://www.w3.org/2000/svg">
<path d="M20.005 0.385254H20.2262C22.2687 0.395865 32.6178 0.501981 35.4082 1.5702C36.2518 1.89622 37.0205 2.53168 37.6375 3.41309C38.2545 4.2945 38.6981 5.39098 38.9242 6.59296C39.1751 7.93708 39.3516 9.71627 39.4708 11.5521L39.4957 11.9199L39.5504 12.8396L39.5702 13.2074C39.7317 16.4404 39.7516 19.4682 39.7541 20.1297V20.3949C39.7516 21.0812 39.7293 24.3141 39.5504 27.6815L39.5305 28.0529L39.5081 28.4208C39.3839 30.444 39.2 32.4531 38.9242 33.9316C38.6988 35.1341 38.2554 36.2311 37.6383 37.1127C37.0212 37.9942 36.2521 38.6294 35.4082 38.9544C32.5259 40.058 21.5704 40.1358 20.0522 40.1394H19.6994C18.9316 40.1394 15.756 40.1181 12.4264 39.9554L12.004 39.9342L11.7878 39.9201L11.3629 39.8953L10.938 39.8705C8.17992 39.6972 5.5535 39.4178 4.34341 38.9509C3.4998 38.6261 2.73094 37.9915 2.11387 37.1106C1.49679 36.2297 1.05317 35.1335 0.827434 33.9316C0.551623 32.4566 0.367748 30.444 0.243509 28.4208L0.223631 28.0494L0.203753 27.6815C0.0811223 25.2847 0.013169 22.8829 0 20.4798L0 20.0448C0.00496957 19.2843 0.0248479 16.6562 0.159026 13.7557L0.17642 13.3914L0.183874 13.2074L0.203753 12.8396L0.258418 11.9199L0.283266 11.5521C0.402535 9.71627 0.578955 7.93355 0.829919 6.59296C1.05527 5.3905 1.49873 4.2935 2.11583 3.41194C2.73293 2.53038 3.50198 1.89524 4.34589 1.5702C5.55598 1.11037 8.1824 0.827398 10.9405 0.65054L11.3629 0.62578L11.7903 0.604558L12.004 0.593947L12.4289 0.569187C14.7937 0.46086 17.1595 0.400721 19.5255 0.388791H20.005V0.385254ZM15.9026 11.7395V28.7815L26.2319 20.2641L15.9026 11.7395Z" fill="white"/>
</svg>
