<svg width="707" height="30" viewBox="0 0 707 30" fill="none" xmlns="http://www.w3.org/2000/svg">
<path d="M23.2966 18.42L19.2766 23.85H0.556641V6.15H19.2766L23.2966 11.58L20.7766 15L23.2966 18.42ZM17.4466 11.58L16.1566 10.11H5.89664V13.2H16.1566L17.4466 11.58ZM17.4466 18.42L16.1566 16.8H5.89664V19.89H16.1566L17.4466 18.42ZM49.4302 19.8L45.4102 23.82H30.6802L26.6602 19.8V10.17L30.6802 6.15H45.4102L49.4302 10.17V19.8ZM44.0902 19.89V10.08H32.0002V19.89H44.0902ZM73.6645 19.89L69.7045 23.85H53.1445V6.15L58.4845 3.06V19.89H73.6645ZM96.0537 18.39L92.0337 23.82H71.5137L75.4437 19.89H88.9137L90.1737 18.39L88.9137 16.8H75.4137L71.5137 11.58L75.5337 6.15H96.0537L92.0937 10.08H78.6537L77.3637 11.58L78.6537 13.17H92.1537L96.0537 18.39ZM120.503 26.88L115.133 23.85V18.75H104.393V23.85L99.0527 23.82V10.17L103.073 6.15H116.483L120.503 10.17V26.88ZM115.133 14.85V10.11H104.393V14.85H115.133ZM160.698 26.88L155.328 23.85V18.75H144.588V23.85L139.248 23.82V10.17L143.268 6.15H156.678L160.698 10.17V26.88ZM155.328 14.85V10.11H144.588V14.85H155.328ZM179.998 19.83L175.978 23.85H166.498L162.568 19.89H174.658V6.15L179.998 3.06V19.83ZM204.959 6.15L201.029 10.11H189.149V13.2H202.379L198.779 16.8H189.149V19.89H204.329L200.369 23.85H183.809V6.15H204.959Z" fill="white"/>
<path d="M654.496 23.79H649.156V9.18L654.496 6.09V23.79ZM703.344 17.04H698.064V22.35H694.104V17.04H688.824V13.08H694.104V7.8H698.064V13.08H703.344V17.04Z" fill="white"/>
<path d="M611.521 13.8L609.301 17.76H594.781L597.001 13.8H611.521Z" fill="white"/>
</svg>
