<svg width="252" height="70" viewBox="0 0 252 70" fill="none" xmlns="http://www.w3.org/2000/svg">
<path d="M2.5 2.5H232C241.665 2.5 249.5 10.335 249.5 20V67.5H20C10.335 67.5 2.5 59.665 2.5 50V2.5Z" fill="url(#paint0_linear_60_8)" fill-opacity="0.6" stroke="white" stroke-width="5"/>
<path d="M56.15 26.15L52.22 30.11H40.34V39.89H55.52L51.56 43.85H39.02L35 39.83V30.17L39.02 26.15H56.15ZM80.1235 39.8L76.1035 43.82H61.3735L57.3535 39.8V30.17L61.3735 26.15H76.1035L80.1235 30.17V39.8ZM74.7835 39.89V30.08H62.6935V39.89H74.7835ZM111.198 46.88L105.858 43.82V32.51L99.2279 41.63H95.7779L89.1779 32.51V43.82H83.8379V26.15H89.8679L97.5179 36.68L105.138 26.15H111.198V46.88ZM137.568 31.58L132.888 37.91H120.408V46.88L115.068 43.82V26.15H133.548L137.568 31.58ZM132.078 31.94L130.668 30.08H120.408V33.89H130.668L132.078 31.94ZM162.529 46.88L157.189 43.82V39.5L155.569 37.91H145.369V43.82H140.029V26.15H158.509L162.529 31.58L159.469 35.69L162.529 38.75V46.88ZM157.039 31.94L155.629 30.08H145.369V33.89H155.629L157.039 31.94ZM186.997 46.88L181.627 43.85V38.75H170.887V43.85L165.547 43.82V30.17L169.567 26.15H182.977L186.997 30.17V46.88ZM181.627 34.85V30.11H170.887V34.85H181.627ZM213.33 46.88L207.99 43.82V39.5L206.37 37.91H196.17V43.82H190.83V26.15H209.31L213.33 31.58L210.27 35.69L213.33 38.75V46.88ZM207.84 31.94L206.43 30.08H196.17V33.89H206.43L207.84 31.94Z" fill="white"/>
<defs>
<linearGradient id="paint0_linear_60_8" x1="125.729" y1="1.42792e-07" x2="125.729" y2="70" gradientUnits="userSpaceOnUse">
<stop stop-color="#EB5757"/>
<stop offset="1"/>
</linearGradient>
</defs>
</svg>
