<svg width="252" height="70" viewBox="0 0 252 70" fill="none" xmlns="http://www.w3.org/2000/svg">
<path d="M2.5 2.5H232C241.665 2.5 249.5 10.335 249.5 20V67.5H20C10.335 67.5 2.5 59.665 2.5 50V2.5Z" fill="url(#paint0_linear_60_7)" fill-opacity="0.6" stroke="white" stroke-width="5"/>
<path d="M47.15 26.15L43.22 30.11H31.34V33.2H44.57L40.97 36.8H31.34V39.89H46.52L42.56 43.85H26V26.15H47.15ZM72.9109 43.82H66.5809L60.9109 38.15L55.2409 43.82H48.8809L57.7309 35L48.8809 26.12H55.2409L60.9109 31.82L66.5809 26.12H72.9109L64.0609 35L72.9109 43.82ZM98.5098 31.58L93.8298 37.91H81.3498V46.88L76.0098 43.82V26.15H94.4898L98.5098 31.58ZM93.0198 31.94L91.6098 30.08H81.3498V33.89H91.6098L93.0198 31.94ZM121.491 39.89L117.531 43.85H100.971V26.15L106.311 23.06V39.89H121.491ZM145.567 39.8L141.547 43.82H126.817L122.797 39.8V30.17L126.817 26.15H141.547L145.567 30.17V39.8ZM140.227 39.89V30.08H128.137V39.89H140.227ZM171.781 46.88L166.441 43.82V39.5L164.821 37.91H154.621V43.82H149.281V26.15H167.761L171.781 31.58L168.721 35.69L171.781 38.75V46.88ZM166.291 31.94L164.881 30.08H154.621V33.89H164.881L166.291 31.94ZM196.249 46.88L190.879 43.85V38.75H180.139V43.85L174.799 43.82V30.17L178.819 26.15H192.229L196.249 30.17V46.88ZM190.879 34.85V30.11H180.139V34.85H190.879ZM222.582 46.88L217.242 43.82V39.5L215.622 37.91H205.422V43.82H200.082V26.15H218.562L222.582 31.58L219.522 35.69L222.582 38.75V46.88ZM217.092 31.94L215.682 30.08H205.422V33.89H215.682L217.092 31.94Z" fill="white"/>
<defs>
<linearGradient id="paint0_linear_60_7" x1="125.729" y1="1.42792e-07" x2="125.729" y2="70" gradientUnits="userSpaceOnUse">
<stop stop-color="#EB5757"/>
<stop offset="1"/>
</linearGradient>
</defs>
</svg>
