<svg width="707" height="30" viewBox="0 0 707 30" fill="none" xmlns="http://www.w3.org/2000/svg">
<path d="M22.5 23.82H17.16V19.5L15.54 17.91H5.34V23.82L0 26.88V6.15H18.48L22.5 11.58L19.44 15.69L22.5 18.75V23.82ZM17.01 11.94L15.6 10.08H5.34V13.89H15.6L17.01 11.94ZM47.3121 6.15L43.3821 10.11H31.5021V13.2H44.7321L41.1321 16.8H31.5021V19.89H46.6821L42.7221 23.85H26.1621V6.15H47.3121ZM77.2819 26.88L71.9419 23.82V12.51L65.3119 21.63H61.8619L55.2619 12.51V23.82H49.9219V6.15H55.9519L63.6019 16.68L71.2219 6.15H77.2819V26.88ZM102.302 6.15L98.3723 10.11H86.4923V13.2H99.7223L96.1223 16.8H86.4923V19.89H101.672L97.7123 23.85H81.1523V6.15H102.302ZM127.412 26.88L122.072 23.82V19.5L120.452 17.91H110.252V23.82H104.912V6.15H123.392L127.412 11.58L124.352 15.69L127.412 18.75V26.88ZM121.922 11.94L120.512 10.08H110.252V13.89H120.512L121.922 11.94ZM153.2 19.8L149.18 23.82H134.45L130.43 19.8V10.17L134.45 6.15H149.18L153.2 10.17V19.8ZM147.86 19.89V10.08H135.77V19.89H147.86ZM178.844 23.82H174.794L162.254 13.5V23.82L156.914 23.79V6.15H160.724L173.504 16.68V6.15L178.844 3.06V23.82ZM218.94 26.88L213.57 23.85V18.75H202.83V23.85L197.49 23.82V10.17L201.51 6.15H214.92L218.94 10.17V26.88ZM213.57 14.85V10.11H202.83V14.85H213.57ZM238.241 19.83L234.221 23.85H224.741L220.811 19.89H232.901V6.15L238.241 3.06V19.83ZM263.201 6.15L259.271 10.11H247.391V13.2H260.621L257.021 16.8H247.391V19.89H262.571L258.611 23.85H242.051V6.15H263.201Z" fill="white"/>
<path d="M654.496 23.79H649.156V9.18L654.496 6.09V23.79ZM703.344 17.04H698.064V22.35H694.104V17.04H688.824V13.08H694.104V7.8H698.064V13.08H703.344V17.04Z" fill="white"/>
<path d="M611.521 13.8L609.301 17.76H594.781L597.001 13.8H611.521Z" fill="white"/>
</svg>
