<svg width="707" height="30" viewBox="0 0 707 30" fill="none" xmlns="http://www.w3.org/2000/svg">
<path d="M23.7 6.15L19.77 10.08H14.52V23.82L9.18 26.88V10.08H3.93L0 6.15H23.7ZM44.6531 26.88L39.2831 23.85V18.75H28.5431V23.85L23.2031 23.82V10.17L27.2231 6.15H40.6331L44.6531 10.17V26.88ZM39.2831 14.85V10.11H28.5431V14.85H39.2831ZM68.9039 19.89L64.9739 23.82H47.7539L59.6039 10.08H51.6839L47.7539 6.15H68.9039L57.0539 19.89H68.9039ZM93.2566 26.88L87.8866 23.85V18.75H77.1466V23.85L71.8066 23.82V10.17L75.8266 6.15H89.2366L93.2566 10.17V26.88ZM87.8866 14.85V10.11H77.1466V14.85H87.8866ZM133.452 26.88L128.082 23.85V18.75H117.342V23.85L112.002 23.82V10.17L116.022 6.15H129.432L133.452 10.17V26.88ZM128.082 14.85V10.11H117.342V14.85H128.082ZM152.752 19.83L148.732 23.85H139.252L135.322 19.89H147.412V6.15L152.752 3.06V19.83ZM177.713 6.15L173.783 10.11H161.903V13.2H175.133L171.533 16.8H161.903V19.89H177.083L173.123 23.85H156.562V6.15H177.713Z" fill="white"/>
<path d="M654.496 23.79H649.156V9.18L654.496 6.09V23.79ZM703.344 17.04H698.064V22.35H694.104V17.04H688.824V13.08H694.104V7.8H698.064V13.08H703.344V17.04Z" fill="white"/>
<path d="M611.521 13.8L609.301 17.76H594.781L597.001 13.8H611.521Z" fill="white"/>
</svg>
